<!-- icon666.com - MILLIONS vector ICONS FREE --><svg version="1.1" id="Capa_1" xmlns="http://www.w3.org/2000/svg" xmlns:xlink="http://www.w3.org/1999/xlink" x="0px" y="0px" viewBox="0 0 168.199 168.2" style="enable-background:new 0 0 168.199 168.2;" xml:space="preserve"><g><g><path d="M44.967,79.964l7.667,3.942c0.248,0.13,0.525,0.193,0.803,0.193c0.277,0,0.551-0.067,0.802-0.193l7.667-3.942 c0.585-0.301,0.95-0.9,0.95-1.559V1.752C62.857,0.786,62.071,0,61.104,0H45.773c-0.967,0-1.752,0.786-1.752,1.752v76.656 C44.018,79.064,44.382,79.663,44.967,79.964z M47.522,3.504h11.827v73.835l-5.915,3.042l-5.916-3.042V3.504H47.522z" fill="#000000" style="fill: rgb(63, 217, 199);"></path><path d="M75.63,79.964l7.667,3.942c0.248,0.13,0.525,0.193,0.802,0.193c0.277,0,0.551-0.067,0.803-0.193l7.667-3.942 c0.586-0.301,0.952-0.9,0.952-1.559V1.752C93.521,0.786,92.734,0,91.769,0H76.436c-0.967,0-1.752,0.786-1.752,1.752v76.656 C74.681,79.064,75.045,79.663,75.63,79.964z M78.185,3.504h11.829v73.835l-5.917,3.042l-5.916-3.042V3.504H78.185z" fill="#000000" style="fill: rgb(63, 217, 199);"></path><path d="M122.428,0h-15.331c-0.969,0-1.752,0.786-1.752,1.752v76.656c0,0.659,0.362,1.257,0.948,1.559l7.669,3.942 c0.246,0.13,0.523,0.193,0.801,0.193s0.551-0.067,0.804-0.193l7.666-3.942c0.585-0.301,0.951-0.9,0.951-1.559V1.752 C124.181,0.782,123.394,0,122.428,0z M120.676,77.335l-5.917,3.042l-5.913-3.042V3.501h11.827v73.834H120.676z" fill="#000000" style="fill: rgb(63, 217, 199);"></path><path d="M123.198,86.909c-0.869-0.424-1.917-0.068-2.345,0.801l-25.539,51.949H72.875L47.341,87.709 c-0.428-0.869-1.477-1.225-2.346-0.801c-0.868,0.428-1.226,1.479-0.799,2.348l26.014,52.914c0.003,0.007,0.003,0.007,0.003,0.007 l12.314,25.043c0.147,0.302,0.375,0.548,0.654,0.716c0.274,0.174,0.594,0.264,0.918,0.264c0.26,0,0.522-0.062,0.775-0.179 c0.034-0.021,0.055-0.048,0.084-0.068c0.063-0.034,0.104-0.082,0.161-0.123c0.197-0.144,0.351-0.308,0.465-0.51 c0.022-0.038,0.067-0.059,0.086-0.093l38.331-77.971C124.423,88.387,124.067,87.336,123.198,86.909z" fill="#000000" style="fill: rgb(63, 217, 199);"></path></g></g></svg>